<?xml version="1.0" encoding="utf-8"?>
<!-- Generator: Adobe Illustrator 24.1.0, SVG Export Plug-In . SVG Version: 6.00 Build 0)  -->
<svg version="1.1" id="Layer_1" xmlns="http://www.w3.org/2000/svg" xmlns:xlink="http://www.w3.org/1999/xlink" x="0px" y="0px"
	 viewBox="0 0 521.35 521.12" style="enable-background:new 0 0 521.35 521.12;" xml:space="preserve">
<style type="text/css">
	.st0{fill:#001AD4;}
</style>
<g>
	<g>
		<path class="st0" d="M261.16,7.35c10.94,0,21.22,4.26,28.96,11.99l63,63c7.73,7.73,11.99,18.02,11.99,28.96
			s-4.26,21.22-11.99,28.96l-63,63c-7.73,7.73-18.02,11.99-28.96,11.99c-10.94,0-21.22-4.26-28.96-11.99l-63-63
			c-7.73-7.73-11.99-18.02-11.99-28.96s4.26-21.22,11.99-28.96l63-63C239.94,11.61,250.22,7.35,261.16,7.35 M261.16,6.35
			c-10.74,0-21.47,4.1-29.66,12.29l-63,63c-16.38,16.38-16.38,42.95,0,59.33l63,63c8.19,8.19,18.93,12.29,29.66,12.29
			c10.74,0,21.47-4.1,29.66-12.29l63-63c16.38-16.38,16.38-42.95,0-59.33l-63-63C282.63,10.45,271.9,6.35,261.16,6.35L261.16,6.35z"
			/>
	</g>
	<g>
		<path class="st0" d="M231.61,8.35v1c8.94,0,17.45,2.85,24.61,8.25l71.16,53.62c18.03,13.59,21.65,39.32,8.06,57.35l-53.62,71.16
			c-7.81,10.36-19.74,16.31-32.74,16.31c-8.94,0-17.45-2.85-24.61-8.25l-71.16-53.62c-8.74-6.58-14.39-16.17-15.91-27.01
			c-1.52-10.83,1.26-21.61,7.85-30.34l53.62-71.16c7.81-10.36,19.74-16.31,32.74-16.31V8.35 M231.61,8.35
			c-12.72,0-25.29,5.76-33.54,16.71l-53.62,71.16c-13.94,18.5-10.25,44.81,8.26,58.75l71.16,53.62c7.56,5.7,16.42,8.45,25.22,8.45
			c12.72,0,25.29-5.76,33.54-16.71l53.62-71.16c13.94-18.5,10.25-44.81-8.26-58.75L256.83,16.8C249.27,11.1,240.4,8.35,231.61,8.35
			L231.61,8.35z"/>
	</g>
	<g>
		<path class="st0" d="M202.6,14.44v1c6.89,0,13.75,1.78,19.82,5.14l77.93,43.19c19.75,10.95,26.91,35.92,15.96,55.67l-43.19,77.93
			c-7.22,13.02-20.96,21.11-35.86,21.11c-6.89,0-13.75-1.78-19.82-5.14l-77.93-43.19c-9.57-5.3-16.5-14.01-19.51-24.53
			c-3.02-10.51-1.76-21.57,3.55-31.14l43.19-77.93c7.22-13.02,20.96-21.11,35.86-21.11V14.44 M202.6,14.44
			c-14.76,0-29.07,7.8-36.73,21.62l-43.19,77.93c-11.23,20.26-3.91,45.8,16.35,57.03l77.93,43.19c6.44,3.57,13.42,5.27,20.3,5.27
			c14.76,0,29.07-7.8,36.73-21.62l43.19-77.93c11.23-20.26,3.91-45.8-16.35-57.03L222.9,19.7C216.46,16.13,209.48,14.44,202.6,14.44
			L202.6,14.44z"/>
	</g>
	<g>
		<path class="st0" d="M174.69,24.51v1h0c5.01,0,9.94,0.92,14.66,2.73l83.18,31.93c21.08,8.09,31.65,31.83,23.56,52.91l-31.93,83.18
			c-3.03,7.89-8.31,14.54-15.29,19.25c-6.82,4.6-14.76,7.04-22.95,7.04c-5.01,0-9.95-0.92-14.67-2.73l-83.18-31.93
			c-21.08-8.09-31.65-31.83-23.56-52.91l31.93-83.18c3.03-7.89,8.31-14.54,15.29-19.25c6.82-4.6,14.76-7.04,22.95-7.04L174.69,24.51
			 M174.69,24.51c-16.86,0-32.77,10.24-39.17,26.93l-31.93,83.18c-8.3,21.63,2.5,45.9,24.13,54.2l83.18,31.93
			c4.95,1.9,10.03,2.8,15.03,2.8c16.86,0,32.77-10.24,39.17-26.93l31.93-83.18c8.3-21.63-2.5-45.9-24.13-54.2L189.72,27.3
			C184.77,25.41,179.69,24.51,174.69,24.51L174.69,24.51z"/>
	</g>
	<g>
		<path class="st0" d="M148.44,39.37c3.09,0,6.2,0.36,9.25,1.06l86.81,20.04c22,5.08,35.77,27.11,30.69,49.11l-20.04,86.81
			c-2.09,9.07-7.27,17.23-14.58,22.98c-7.2,5.66-16.18,8.77-25.28,8.77c-3.09,0-6.21-0.36-9.25-1.06l-86.81-20.04
			c-10.66-2.46-19.72-8.92-25.52-18.2c-5.8-9.28-7.63-20.26-5.17-30.91l20.04-86.81c2.09-9.07,7.27-17.23,14.58-22.97
			C130.36,42.48,139.34,39.37,148.44,39.37L148.44,39.37 M148.44,38.37c-19.09,0-36.36,13.12-40.84,32.52L87.56,157.7
			c-5.21,22.58,8.86,45.1,31.44,50.31l86.81,20.04c3.18,0.73,6.35,1.08,9.47,1.08c19.09,0,36.36-13.12,40.84-32.52l20.04-86.81
			c5.21-22.58-8.86-45.1-31.44-50.31l-86.81-20.04C154.74,38.72,151.56,38.37,148.44,38.37L148.44,38.37z"/>
	</g>
	<g>
		<path class="st0" d="M124.4,56.74L124.4,56.74c1.2,0,2.42,0.05,3.62,0.16l88.76,7.77c22.5,1.97,39.2,21.87,37.23,44.37
			l-7.77,88.76c-0.9,10.27-5.59,19.75-13.2,26.69c-7.57,6.9-17.35,10.7-27.55,10.7c-1.2,0-2.42-0.05-3.62-0.16l-88.76-7.77
			c-10.9-0.95-20.77-6.09-27.8-14.47c-7.03-8.38-10.38-19-9.43-29.89l7.77-88.76c0.9-10.27,5.59-19.75,13.2-26.69
			C104.42,60.54,114.2,56.74,124.4,56.74 M124.4,55.74c-21.52,0-39.83,16.46-41.74,38.3l-7.77,88.76
			c-2.02,23.08,15.05,43.43,38.14,45.45l88.76,7.77c1.24,0.11,2.48,0.16,3.7,0.16c21.52,0,39.83-16.46,41.74-38.3l7.77-88.76
			c2.02-23.08-15.05-43.43-38.14-45.45l-88.76-7.77C126.86,55.8,125.63,55.74,124.4,55.74L124.4,55.74z"/>
	</g>
	<g>
		<path class="st0" d="M192.09,71.62v1c21.77,0,39.72,17.05,40.86,38.81l4.66,88.97c1.18,22.55-16.2,41.86-38.75,43.04l-88.97,4.66
			c-0.72,0.04-1.46,0.06-2.18,0.06c-21.77,0-39.72-17.05-40.86-38.81l-4.66-88.97C61,97.83,78.38,78.53,100.93,77.34l88.97-4.66
			c0.72-0.04,1.46-0.06,2.18-0.06L192.09,71.62 M192.08,71.62c-0.74,0-1.48,0.02-2.23,0.06l-88.97,4.66
			c-23.14,1.21-40.91,20.95-39.7,44.09l4.66,88.97c1.17,22.39,19.7,39.76,41.86,39.76c0.74,0,1.48-0.02,2.23-0.06l88.97-4.66
			c23.14-1.21,40.91-20.95,39.7-44.09l-4.66-88.97C232.77,88.99,214.25,71.62,192.08,71.62L192.08,71.62z"/>
	</g>
	<g>
		<path class="st0" d="M172.27,82.6v1c19.53,0,36.42,13.94,40.15,33.15l17,87.46c2.09,10.74-0.13,21.65-6.25,30.71
			c-6.12,9.07-15.4,15.21-26.14,17.3l-87.46,17c-2.6,0.5-5.24,0.76-7.86,0.76c-19.53,0-36.42-13.94-40.15-33.15l-17-87.46
			c-4.31-22.17,10.22-43.7,32.39-48.01l87.46-17c2.59-0.5,5.24-0.76,7.86-0.76L172.27,82.6 M172.27,82.6
			c-2.65,0-5.35,0.25-8.05,0.78l-87.46,17c-22.74,4.42-37.6,26.44-33.18,49.19l17,87.46c3.9,20.04,21.46,33.96,41.14,33.96
			c2.65,0,5.35-0.25,8.05-0.78l87.46-17c22.74-4.42,37.6-26.44,33.18-49.19l-17-87.46C209.51,96.51,191.95,82.6,172.27,82.6
			L172.27,82.6z"/>
	</g>
	<g>
		<path class="st0" d="M154.13,97.23c17.47,0,33.02,11.1,38.71,27.63l29.01,84.24c7.35,21.35-4.04,44.7-25.39,52.05l-84.24,29.01
			c-4.32,1.49-8.81,2.24-13.34,2.24c-17.47,0-33.03-11.1-38.72-27.63l-29.01-84.24c-3.56-10.34-2.88-21.45,1.91-31.28
			c4.8-9.83,13.13-17.21,23.47-20.77l84.24-29.01C145.11,97.98,149.6,97.23,154.13,97.23L154.13,97.23 M154.13,96.23
			c-4.53,0-9.14,0.74-13.66,2.3l-84.24,29.01c-21.91,7.54-33.55,31.42-26.01,53.32l29.01,84.24c5.99,17.39,22.25,28.31,39.66,28.31
			c4.53,0,9.14-0.74,13.66-2.3l84.24-29.01c21.91-7.54,33.55-31.42,26.01-53.32l-29.01-84.24
			C187.81,107.15,171.54,96.23,154.13,96.23L154.13,96.23z"/>
	</g>
	<g>
		<path class="st0" d="M138.07,112.25v1h0c15.5,0,29.49,8.57,36.52,22.37l40.45,79.39c10.25,20.12,2.22,44.83-17.9,55.08
			l-79.39,40.45c-5.82,2.97-12.07,4.47-18.56,4.47c-15.5,0-29.49-8.57-36.52-22.37l-40.45-79.39c-4.97-9.75-5.84-20.84-2.46-31.25
			c3.38-10.4,10.61-18.87,20.36-23.83l79.39-40.45c5.82-2.97,12.07-4.47,18.56-4.47L138.07,112.25 M138.06,112.25
			c-6.41,0-12.91,1.47-19.01,4.58l-79.39,40.45c-20.64,10.52-28.85,35.78-18.33,56.43l40.45,79.39
			c7.41,14.54,22.14,22.92,37.41,22.92c6.41,0,12.91-1.47,19.01-4.58l79.39-40.45c20.64-10.52,28.85-35.78,18.33-56.43l-40.45-79.39
			C168.07,120.62,153.34,112.25,138.06,112.25L138.06,112.25z"/>
	</g>
	<g>
		<path class="st0" d="M124.42,131.35L124.42,131.35c13.37,0,25.92,6.53,33.58,17.47l51.1,72.98c12.95,18.5,8.44,44.08-10.06,57.03
			l-72.98,51.1c-6.92,4.85-15.03,7.41-23.45,7.41c-13.37,0-25.92-6.53-33.58-17.47l-51.1-72.98c-12.95-18.5-8.44-44.08,10.06-57.03
			l72.98-51.1C107.89,133.91,116,131.35,124.42,131.35 M124.42,130.35c-8.31,0-16.7,2.46-24.03,7.59l-72.98,51.1
			c-18.98,13.29-23.59,39.45-10.3,58.43l51.1,72.98c8.16,11.66,21.18,17.89,34.4,17.89c8.31,0,16.7-2.46,24.03-7.59l72.98-51.1
			c18.98-13.29,23.59-39.45,10.3-58.43l-51.1-72.98C150.66,136.59,137.65,130.35,124.42,130.35L124.42,130.35z"/>
	</g>
	<g>
		<path class="st0" d="M113.46,151.17L113.46,151.17c11.32,0,22.24,4.75,29.96,13.02l60.76,65.16c7.46,8,11.36,18.43,10.98,29.36
			c-0.38,10.93-5,21.06-13,28.52L137,348c-7.61,7.09-17.52,11-27.92,11c-11.32,0-22.24-4.75-29.96-13.02l-60.76-65.16
			c-7.46-8-11.36-18.43-10.98-29.36c0.38-10.93,5-21.06,13-28.52l65.16-60.76C93.14,155.08,103.06,151.17,113.46,151.17
			 M113.46,150.17c-10.25,0-20.52,3.73-28.6,11.27l-65.16,60.76c-16.95,15.8-17.87,42.35-2.07,59.29l60.76,65.16
			c8.26,8.86,19.46,13.34,30.69,13.34c10.25,0,20.52-3.73,28.6-11.27l65.16-60.76c16.95-15.8,17.87-42.35,2.07-59.29l-60.76-65.16
			C135.89,154.65,124.69,150.17,113.46,150.17L113.46,150.17z"/>
	</g>
	<g>
		<path class="st0" d="M105.37,171.32v1h0c9.33,0,18.48,3.24,25.74,9.13l69.24,56.07c8.5,6.88,13.81,16.67,14.96,27.55
			c1.14,10.88-2.02,21.55-8.9,30.05l-56.07,69.24c-7.81,9.65-19.42,15.18-31.85,15.18c-9.33,0-18.48-3.24-25.75-9.13L23.5,314.34
			C15,307.46,9.69,297.68,8.54,286.8c-1.14-10.88,2.02-21.55,8.9-30.05l56.07-69.24c7.81-9.65,19.42-15.18,31.85-15.18
			L105.37,171.32 M105.37,171.32c-12.22,0-24.34,5.31-32.63,15.55l-56.07,69.24c-14.58,18.01-11.8,44.42,6.2,59l69.24,56.07
			c7.77,6.29,17.1,9.35,26.38,9.35c12.22,0,24.34-5.31,32.63-15.55l56.07-69.24c14.58-18.01,11.8-44.42-6.2-59l-69.24-56.07
			C123.97,174.38,114.64,171.32,105.37,171.32L105.37,171.32z"/>
	</g>
	<g>
		<path class="st0" d="M100.28,193.4l0,1h0c7.4,0,14.67,2.02,21.05,5.86l76.37,45.89c9.38,5.63,16,14.58,18.64,25.2
			c2.65,10.61,1,21.62-4.63,31l-45.89,76.37c-7.47,12.44-20.61,19.87-35.14,19.87c-7.4,0-14.68-2.02-21.05-5.86l-76.37-45.89
			C13.9,335.2,7.62,309.99,19.25,290.63l45.89-76.37c7.47-12.44,20.61-19.87,35.14-19.87L100.28,193.4 M100.28,193.4
			c-14.24,0-28.13,7.26-36,20.35l-45.89,76.37c-11.93,19.86-5.51,45.63,14.35,57.57l76.37,45.89c6.76,4.06,14.21,6,21.57,6
			c14.24,0,28.13-7.26,36-20.35l45.89-76.37c11.93-19.86,5.51-45.63-14.35-57.57l-76.37-45.89
			C115.08,195.33,107.63,193.4,100.28,193.4L100.28,193.4z"/>
	</g>
	<g>
		<path class="st0" d="M98.28,215.97l0,1h0c5.5,0,10.87,1.1,15.98,3.27l82.01,34.81c20.79,8.82,30.52,32.91,21.7,53.7l-34.81,82.01
			c-6.44,15.16-21.24,24.96-37.72,24.96c-5.5,0-10.88-1.1-15.98-3.27l-82.01-34.81c-20.79-8.82-30.52-32.91-21.7-53.7l34.81-82.01
			c6.44-15.16,21.24-24.96,37.72-24.96L98.28,215.97 M98.28,215.97c-16.33,0-31.85,9.59-38.64,25.57l-34.81,82.01
			c-9.05,21.33,0.9,45.96,22.23,55.01l82.01,34.81c5.35,2.27,10.91,3.35,16.37,3.35c16.33,0,31.85-9.59,38.64-25.57l34.81-82.01
			c9.05-21.33-0.9-45.96-22.23-55.01l-82.01-34.81C109.3,217.04,103.74,215.97,98.28,215.97L98.28,215.97z"/>
	</g>
	<g>
		<path class="st0" d="M99.41,238.6l0,1h0c3.57,0,7.14,0.47,10.62,1.41l86.06,23.06c21.81,5.84,34.8,28.34,28.96,50.16l-23.06,86.06
			c-4.79,17.88-21.05,30.36-39.53,30.36c-3.57,0-7.14-0.47-10.63-1.41l-86.06-23.06c-10.57-2.83-19.4-9.61-24.87-19.08
			s-6.92-20.51-4.09-31.08l23.06-86.06c4.79-17.88,21.05-30.36,39.53-30.36L99.41,238.6 M99.41,238.6
			c-18.52,0-35.47,12.36-40.5,31.1l-23.06,86.06c-6,22.38,7.28,45.38,29.66,51.38l86.06,23.06c3.64,0.97,7.29,1.44,10.88,1.44
			c18.52,0,35.47-12.36,40.5-31.1l23.06-86.06c6-22.38-7.28-45.38-29.66-51.38l-86.06-23.06C106.66,239.06,103.01,238.6,99.41,238.6
			L99.41,238.6z"/>
	</g>
	<g>
		<path class="st0" d="M103.7,260.85v1c1.67,0,3.37,0.1,5.04,0.31l88.43,10.86c10.86,1.33,20.55,6.81,27.28,15.43
			c6.73,8.62,9.71,19.35,8.38,30.2l-10.86,88.43c-2.52,20.5-19.97,35.97-40.59,35.97c-1.67,0-3.37-0.1-5.04-0.31l-88.43-10.86
			c-22.41-2.75-38.41-23.22-35.66-45.64l10.86-88.43c2.52-20.5,19.97-35.96,40.59-35.97L103.7,260.85 M103.7,260.85
			c-20.89,0-38.98,15.58-41.59,36.84l-10.86,88.43c-2.82,23,13.53,43.93,36.53,46.75l88.43,10.86c1.74,0.21,3.46,0.32,5.17,0.32
			c20.89,0,38.98-15.58,41.59-36.84l10.86-88.43c2.82-23-13.53-43.93-36.53-46.75l-88.43-10.86
			C107.13,260.95,105.41,260.85,103.7,260.85L103.7,260.85z"/>
	</g>
	<g>
		<path class="st0" d="M200.23,281.73c10.79,0,20.97,4.17,28.67,11.73c7.71,7.57,12.07,17.7,12.26,28.51l1.55,89.08
			c0.19,10.94-3.89,21.29-11.49,29.16c-7.6,7.87-17.81,12.31-28.74,12.5l-89.08,1.55c-0.24,0-0.49,0.01-0.73,0.01
			c-10.79,0-20.97-4.17-28.68-11.73c-7.71-7.57-12.07-17.7-12.26-28.51l-1.55-89.08c-0.39-22.58,17.65-41.27,40.23-41.66l89.08-1.55
			C199.74,281.73,199.98,281.73,200.23,281.73L200.23,281.73 M200.23,280.73c-0.25,0-0.5,0-0.75,0.01l-89.08,1.55
			c-23.17,0.4-41.62,19.51-41.21,42.68l1.55,89.08c0.4,22.92,19.1,41.22,41.93,41.22c0.25,0,0.5,0,0.75-0.01l89.08-1.55
			c23.17-0.4,41.62-19.51,41.21-42.68l-1.55-89.08C241.76,299.03,223.06,280.72,200.23,280.73L200.23,280.73z"/>
	</g>
	<g>
		<path class="st0" d="M209.46,288.53l0,1h0c9.64,0,19.02,3.45,26.42,9.71c7.48,6.33,12.44,15.15,13.97,24.84l13.94,88
			c3.53,22.3-11.74,43.32-34.04,46.85l-88,13.94c-2.14,0.34-4.31,0.51-6.46,0.51c-9.64,0-19.02-3.45-26.42-9.71
			c-7.48-6.33-12.44-15.15-13.97-24.84l-13.94-88c-1.71-10.8,0.89-21.63,7.32-30.48s15.92-14.67,26.72-16.38l88-13.94
			c2.14-0.34,4.31-0.51,6.46-0.51L209.46,288.53 M209.46,288.53c-2.18,0-4.39,0.17-6.61,0.52l-88,13.94
			c-22.88,3.62-38.5,25.11-34.87,48l13.94,88c3.27,20.66,21.11,35.4,41.38,35.4c2.18,0,4.39-0.17,6.61-0.52l88-13.94
			c22.88-3.62,38.5-25.11,34.87-48l-13.94-88C247.57,303.26,229.74,288.53,209.46,288.53L209.46,288.53z"/>
	</g>
	<g>
		<path class="st0" d="M219.62,295.98c8.58,0,17.15,2.8,24.13,7.88c7.21,5.25,12.41,12.55,15.02,21.11l26.05,85.2
			c6.6,21.59-5.6,44.53-27.19,51.14l-85.2,26.05c-3.91,1.19-7.94,1.8-11.99,1.8c-8.58,0-17.15-2.8-24.13-7.88
			c-7.21-5.25-12.4-12.55-15.02-21.11l-26.05-85.2c-6.6-21.59,5.6-44.53,27.19-51.14l85.2-26.05
			C211.54,296.59,215.58,295.98,219.62,295.98L219.62,295.98 M219.62,294.98c-4.06,0-8.19,0.59-12.28,1.84l-85.2,26.05
			c-22.16,6.77-34.63,30.23-27.85,52.38l26.05,85.2c5.52,18.07,22.14,29.7,40.1,29.7c4.06,0,8.19-0.59,12.28-1.84l85.2-26.05
			c22.16-6.77,34.63-30.23,27.85-52.38l-26.05-85.2C254.2,306.61,237.58,294.98,219.62,294.98L219.62,294.98z"/>
	</g>
	<g>
		<path class="st0" d="M230.58,299.95v1h0c15.86,0,30.44,9.29,37.14,23.65l37.65,80.75c4.62,9.91,5.11,21.03,1.37,31.31
			c-3.74,10.28-11.26,18.49-21.18,23.11l-80.75,37.65c-5.47,2.55-11.29,3.85-17.28,3.85c-15.86,0-30.44-9.29-37.14-23.65
			l-37.65-80.75c-9.54-20.47-0.66-44.88,19.81-54.42l80.75-37.65c5.47-2.55,11.29-3.85,17.28-3.85L230.58,299.95 M230.58,299.95
			c-5.94,0-11.97,1.27-17.7,3.94l-80.75,37.65c-21,9.79-30.08,34.75-20.29,55.75l37.65,80.75c7.12,15.26,22.25,24.23,38.05,24.23
			c5.94,0,11.97-1.27,17.7-3.94l80.75-37.65c21-9.79,30.08-34.75,20.29-55.75l-37.65-80.75
			C261.51,308.92,246.38,299.95,230.58,299.95L230.58,299.95z"/>
	</g>
	<g>
		<path class="st0" d="M242.15,303.35v1c13.94,0,26.8,6.97,34.38,18.65l48.53,74.72c5.96,9.17,7.99,20.12,5.71,30.82
			c-2.27,10.7-8.58,19.87-17.75,25.83l-74.72,48.53c-6.66,4.33-14.36,6.61-22.26,6.61c-13.95,0-26.8-6.97-34.38-18.65l-48.53-74.72
			c-5.96-9.17-7.99-20.12-5.71-30.82c2.27-10.7,8.58-19.87,17.75-25.83l74.72-48.53c6.66-4.33,14.36-6.61,22.26-6.61L242.15,303.35
			 M242.15,303.35c-7.83,0-15.75,2.19-22.81,6.77l-74.72,48.53c-19.43,12.62-24.95,38.6-12.34,58.03l48.53,74.72
			c8.04,12.37,21.49,19.11,35.22,19.11c7.83,0,15.75-2.19,22.81-6.77l74.72-48.53c19.43-12.62,24.95-38.6,12.34-58.03l-48.53-74.72
			C269.33,310.08,255.88,303.35,242.15,303.35L242.15,303.35z"/>
	</g>
	<g>
		<path class="st0" d="M254.11,306.1c11.87,0,23.14,5.13,30.92,14.09l58.45,67.24c7.18,8.26,10.71,18.81,9.95,29.72
			c-0.76,10.91-5.73,20.87-13.99,28.05l-67.24,58.45c-7.45,6.48-16.99,10.05-26.85,10.05c-11.87,0-23.14-5.13-30.92-14.09
			l-58.45-67.24c-7.18-8.26-10.71-18.81-9.95-29.72c0.76-10.91,5.73-20.87,13.99-28.05l67.24-58.45
			C234.71,309.67,244.25,306.1,254.11,306.1L254.11,306.1 M254.11,305.1c-9.76,0-19.56,3.39-27.51,10.29l-67.24,58.45
			c-17.49,15.2-19.34,41.7-4.14,59.18l58.45,67.24c8.3,9.54,19.95,14.43,31.68,14.43c9.76,0,19.56-3.39,27.51-10.29l67.24-58.45
			c17.49-15.2,19.34-41.7,4.14-59.18l-58.45-67.24C277.49,309.99,265.83,305.1,254.11,305.1L254.11,305.1z"/>
	</g>
	<g>
		<path class="st0" d="M266.21,305.17v1c9.86,0,19.4,3.57,26.85,10.05l67.24,58.45c8.26,7.18,13.22,17.14,13.99,28.05
			c0.76,10.91-2.77,21.47-9.95,29.72l-58.45,67.24c-7.78,8.95-19.05,14.09-30.92,14.09c-9.86,0-19.4-3.57-26.85-10.05l-67.24-58.45
			c-8.26-7.18-13.22-17.14-13.99-28.05c-0.76-10.91,2.77-21.47,9.95-29.72l58.45-67.24c7.78-8.95,19.05-14.09,30.92-14.09
			L266.21,305.17 M266.21,305.17c-11.72,0-23.38,4.89-31.68,14.43l-58.45,67.24c-15.2,17.49-13.35,43.98,4.14,59.18l67.24,58.45
			c7.94,6.91,17.75,10.29,27.51,10.29c11.72,0,23.38-4.89,31.68-14.43l58.45-67.24c15.2-17.49,13.35-43.98-4.14-59.18l-67.24-58.45
			C285.77,308.56,275.97,305.17,266.21,305.17L266.21,305.17z"/>
	</g>
	<g>
		<path class="st0" d="M278.2,303.56v1h0c7.9,0,15.6,2.29,22.26,6.61l74.72,48.53c9.17,5.96,15.48,15.13,17.75,25.83
			s0.25,21.64-5.71,30.82l-48.53,74.72c-7.58,11.68-20.44,18.65-34.38,18.65c-7.91,0-15.6-2.29-22.26-6.61l-74.72-48.53
			c-18.94-12.3-24.34-37.71-12.04-56.65l48.53-74.72c7.58-11.68,20.44-18.65,34.38-18.65L278.2,303.56 M278.19,303.56
			c-13.73,0-27.19,6.73-35.22,19.11l-48.53,74.72c-12.62,19.43-7.1,45.41,12.34,58.03l74.72,48.53c7.06,4.58,14.98,6.77,22.81,6.77
			c13.73,0,27.19-6.73,35.22-19.11l48.53-74.72c12.62-19.43,7.1-45.41-12.34-58.03L301,310.33
			C293.94,305.75,286.03,303.56,278.19,303.56L278.19,303.56z"/>
	</g>
	<g>
		<path class="st0" d="M289.8,301.29L289.8,301.29c5.99,0,11.8,1.29,17.28,3.85l80.75,37.65c20.47,9.54,29.35,33.96,19.81,54.42
			l-37.65,80.75c-6.7,14.37-21.28,23.65-37.14,23.65c-5.99,0-11.81-1.29-17.28-3.85l-80.75-37.65
			c-9.91-4.62-17.43-12.83-21.18-23.11c-3.74-10.28-3.26-21.4,1.37-31.31l37.65-80.75C259.36,310.58,273.94,301.29,289.8,301.29
			 M289.8,300.29c-15.8,0-30.93,8.97-38.05,24.23l-37.65,80.75c-9.79,21-0.71,45.96,20.29,55.75l80.75,37.65
			c5.74,2.67,11.77,3.94,17.7,3.94c15.8,0,30.93-8.97,38.05-24.23l37.65-80.75c9.79-21,0.71-45.96-20.29-55.75l-80.75-37.65
			C301.77,301.56,295.74,300.29,289.8,300.29L289.8,300.29z"/>
	</g>
	<g>
		<path class="st0" d="M300.82,295.45v1h0c4.04,0,8.08,0.61,11.98,1.8L398,324.3c21.59,6.6,33.79,29.54,27.19,51.14l-26.05,85.2
			c-2.62,8.56-7.81,15.85-15.02,21.11c-6.98,5.08-15.54,7.88-24.13,7.88c-4.05,0-8.08-0.61-11.99-1.8l-85.2-26.05
			c-21.59-6.6-33.79-29.54-27.19-51.14l26.05-85.2c2.62-8.56,7.81-15.85,15.02-21.11c6.98-5.08,15.54-7.88,24.13-7.88L300.82,295.45
			 M300.81,295.45c-17.96,0-34.58,11.63-40.1,29.7l-26.05,85.2c-6.77,22.16,5.7,45.61,27.85,52.38l85.2,26.05
			c4.09,1.25,8.22,1.84,12.28,1.84c17.96,0,34.58-11.63,40.1-29.7l26.05-85.2c6.77-22.16-5.7-45.61-27.85-52.38l-85.2-26.05
			C309,296.04,304.88,295.45,300.81,295.45L300.81,295.45z"/>
	</g>
	<g>
		<path class="st0" d="M311.05,289.12v1h0c2.15,0,4.32,0.17,6.46,0.51l88,13.94c22.3,3.53,37.57,24.55,34.04,46.85l-13.94,88
			c-1.53,9.69-6.5,18.51-13.97,24.84c-7.4,6.26-16.78,9.71-26.42,9.71c-2.15,0-4.32-0.17-6.46-0.51l-88-13.94
			c-22.3-3.53-37.57-24.55-34.04-46.85l13.94-88c1.53-9.69,6.5-18.51,13.97-24.84c7.4-6.26,16.78-9.71,26.42-9.71L311.05,289.12
			 M311.05,289.12c-20.28,0-38.11,14.73-41.38,35.4l-13.94,88c-3.62,22.88,11.99,44.37,34.87,48l88,13.94
			c2.22,0.35,4.43,0.52,6.61,0.52c20.28,0,38.11-14.73,41.38-35.4l13.94-88c3.62-22.88-11.99-44.37-34.87-48l-88-13.94
			C315.44,289.29,313.23,289.12,311.05,289.12L311.05,289.12z"/>
	</g>
	<g>
		<path class="st0" d="M320.38,281.42v1c0.24,0,0.48,0,0.73,0.01l89.08,1.55c22.58,0.39,40.63,19.08,40.23,41.66l-1.55,89.08
			c-0.19,10.81-4.54,20.93-12.26,28.51c-7.71,7.56-17.89,11.73-28.68,11.73c-0.24,0-0.48,0-0.73-0.01l-89.08-1.55
			c-10.94-0.19-21.15-4.63-28.74-12.5c-7.6-7.87-11.68-18.23-11.49-29.16l1.55-89.08c0.19-10.81,4.54-20.93,12.26-28.51
			c7.71-7.56,17.89-11.73,28.68-11.73L320.38,281.42 M320.37,281.42c-22.83,0-41.53,18.3-41.93,41.22l-1.55,89.08
			c-0.4,23.17,18.05,42.27,41.21,42.68l89.08,1.55c0.25,0,0.5,0.01,0.75,0.01c22.83,0,41.53-18.3,41.93-41.22l1.55-89.08
			c0.4-23.17-18.05-42.27-41.21-42.68l-89.08-1.55C320.87,281.42,320.62,281.42,320.37,281.42L320.37,281.42z"/>
	</g>
	<g>
		<path class="st0" d="M417,262.64c20.62,0,38.07,15.46,40.59,35.97l10.86,88.43c1.33,10.86-1.64,21.58-8.38,30.2
			c-6.73,8.62-16.42,14.1-27.28,15.43l-88.43,10.86c-1.67,0.21-3.37,0.31-5.04,0.31c-20.62,0-38.08-15.46-40.59-35.97l-10.86-88.43
			c-1.33-10.86,1.64-21.58,8.38-30.2s16.42-14.1,27.28-15.43l88.43-10.86C413.63,262.74,415.32,262.64,417,262.64L417,262.64
			 M417,261.64c-1.7,0-3.43,0.1-5.17,0.32l-88.43,10.86c-23,2.82-39.35,23.76-36.53,46.75L297.73,408
			c2.61,21.26,20.7,36.84,41.59,36.84c1.7,0,3.43-0.1,5.17-0.32l88.43-10.86c23-2.82,39.35-23.76,36.53-46.75l-10.86-88.43
			C455.97,277.22,437.89,261.64,417,261.64L417,261.64z"/>
	</g>
	<g>
		<path class="st0" d="M421.41,239.46l0,1h0c18.48,0,34.74,12.49,39.53,30.36L484,356.89c5.84,21.81-7.15,44.31-28.96,50.16
			l-86.06,23.06c-3.48,0.93-7.06,1.41-10.63,1.41c-18.48,0-34.74-12.49-39.53-30.36l-23.06-86.06c-2.83-10.57-1.38-21.6,4.09-31.08
			c5.47-9.47,14.3-16.25,24.87-19.08l86.06-23.06c3.48-0.93,7.06-1.41,10.63-1.41L421.41,239.46 M421.41,239.46
			c-3.59,0-7.25,0.47-10.88,1.44l-86.06,23.06c-22.38,6-35.66,29-29.66,51.38l23.06,86.06c5.02,18.74,21.97,31.1,40.5,31.1
			c3.59,0,7.25-0.47,10.88-1.44l86.06-23.06c22.38-6,35.66-29,29.66-51.38l-23.06-86.06C456.88,251.82,439.93,239.46,421.41,239.46
			L421.41,239.46z"/>
	</g>
	<g>
		<path class="st0" d="M422.67,216.89v1c16.47,0,31.28,9.8,37.71,24.96l34.81,82.01c8.82,20.79-0.91,44.87-21.7,53.7l-82.01,34.81
			c-5.11,2.17-10.48,3.27-15.98,3.27c-16.47,0-31.28-9.8-37.72-24.96l-34.81-82.01c-4.27-10.07-4.37-21.2-0.27-31.34
			c4.1-10.14,11.9-18.08,21.97-22.36l82.01-34.81c5.11-2.17,10.48-3.27,15.98-3.27L422.67,216.89 M422.67,216.89
			c-5.47,0-11.02,1.08-16.37,3.35l-82.01,34.81c-21.33,9.05-31.28,33.68-22.23,55.01l34.81,82.01
			c6.78,15.98,22.31,25.57,38.64,25.57c5.47,0,11.02-1.08,16.37-3.35l82.01-34.81c21.33-9.05,31.28-33.68,22.23-55.01l-34.81-82.01
			C454.52,226.49,439,216.89,422.67,216.89L422.67,216.89z"/>
	</g>
	<g>
		<path class="st0" d="M420.8,194.37l0,1h0c14.53,0,27.67,7.43,35.14,19.87l45.89,76.37c11.63,19.36,5.34,44.56-14.01,56.19
			l-76.37,45.89c-6.38,3.83-13.66,5.86-21.05,5.86c-14.53,0-27.67-7.43-35.14-19.87l-45.89-76.37
			c-11.63-19.36-5.34-44.56,14.01-56.19l76.37-45.89c6.37-3.83,13.65-5.86,21.05-5.86L420.8,194.37 M420.8,194.37
			c-7.35,0-14.8,1.93-21.57,6l-76.37,45.89c-19.86,11.93-26.29,37.71-14.35,57.57l45.89,76.37c7.87,13.1,21.76,20.35,36,20.35
			c7.35,0,14.8-1.93,21.57-6l76.37-45.89c19.86-11.93,26.29-37.71,14.35-57.57l-45.89-76.37
			C448.93,201.62,435.04,194.37,420.8,194.37L420.8,194.37z"/>
	</g>
	<g>
		<path class="st0" d="M415.85,172.32v1h0c12.43,0,24.04,5.53,31.85,15.18l56.07,69.24c14.21,17.55,11.5,43.39-6.05,57.6
			l-69.24,56.07c-7.27,5.89-16.41,9.13-25.75,9.13c-12.43,0-24.04-5.53-31.85-15.18l-56.07-69.24c-6.88-8.5-10.05-19.17-8.9-30.05
			c1.14-10.88,6.45-20.66,14.96-27.55l69.24-56.07c7.27-5.89,16.41-9.13,25.75-9.13L415.85,172.32 M415.85,172.32
			c-9.27,0-18.61,3.06-26.38,9.35l-69.24,56.07c-18.01,14.58-20.78,41-6.2,59l56.07,69.24c8.29,10.24,20.41,15.55,32.63,15.55
			c9.27,0,18.61-3.06,26.38-9.35l69.24-56.07c18.01-14.58,20.78-41,6.2-59l-56.07-69.24C440.18,177.63,428.07,172.32,415.85,172.32
			L415.85,172.32z"/>
	</g>
	<g>
		<path class="st0" d="M407.9,152.17c10.39,0,20.31,3.91,27.92,11l65.16,60.76c8,7.46,12.62,17.59,13,28.52
			c0.38,10.93-3.52,21.36-10.98,29.36l-60.76,65.16c-7.72,8.28-18.64,13.02-29.96,13.02c-10.4,0-20.31-3.91-27.92-11l-65.16-60.76
			c-8-7.46-12.62-17.59-13-28.52c-0.38-10.93,3.52-21.36,10.98-29.36l60.76-65.16C385.65,156.92,396.57,152.17,407.9,152.17
			L407.9,152.17 M407.9,151.17c-11.23,0-22.43,4.48-30.69,13.34l-60.76,65.16c-15.8,16.95-14.87,43.49,2.07,59.29l65.16,60.76
			c8.09,7.54,18.35,11.27,28.6,11.27c11.23,0,22.43-4.48,30.69-13.34l60.76-65.16c15.8-16.95,14.87-43.49-2.07-59.29l-65.16-60.76
			C428.41,154.9,418.14,151.17,407.9,151.17L407.9,151.17z"/>
	</g>
	<g>
		<path class="st0" d="M397.07,131.34v1h0c8.42,0,16.53,2.56,23.45,7.41l72.98,51.1c8.96,6.27,14.94,15.66,16.84,26.43
			c1.9,10.77-0.51,21.64-6.78,30.6l-51.1,72.98c-7.66,10.94-20.21,17.47-33.58,17.47c-8.42,0-16.53-2.56-23.45-7.41l-72.98-51.1
			c-8.96-6.27-14.94-15.66-16.84-26.43c-1.9-10.77,0.51-21.64,6.78-30.6l51.1-72.98c7.66-10.94,20.21-17.47,33.58-17.47
			L397.07,131.34 M397.07,131.34c-13.22,0-26.24,6.24-34.4,17.89l-51.1,72.98c-13.29,18.98-8.68,45.14,10.3,58.43l72.98,51.1
			c7.32,5.13,15.72,7.59,24.03,7.59c13.22,0,26.24-6.24,34.4-17.89l51.1-72.98c13.29-18.98,8.68-45.14-10.3-58.43l-72.98-51.1
			C413.77,133.8,405.38,131.34,397.07,131.34L397.07,131.34z"/>
	</g>
	<g>
		<path class="st0" d="M383.56,113.2v1c6.49,0,12.73,1.5,18.56,4.47l79.39,40.45c20.12,10.25,28.15,34.96,17.9,55.08l-40.45,79.39
			c-7.03,13.8-21.02,22.37-36.52,22.37c-6.49,0-12.73-1.5-18.56-4.47l-79.39-40.45c-20.12-10.25-28.15-34.96-17.9-55.08l40.45-79.39
			c7.03-13.8,21.02-22.37,36.52-22.37L383.56,113.2 M383.56,113.2c-15.27,0-30,8.37-37.41,22.92L305.7,215.5
			c-10.52,20.64-2.31,45.91,18.33,56.43l79.39,40.45c6.1,3.11,12.6,4.58,19.01,4.58c15.27,0,30-8.37,37.41-22.92l40.45-79.39
			c10.52-20.64,2.31-45.91-18.33-56.43l-79.39-40.45C396.47,114.68,389.97,113.2,383.56,113.2L383.56,113.2z"/>
	</g>
	<g>
		<path class="st0" d="M367.63,97.13v1h0c4.52,0,9.01,0.75,13.33,2.24l84.24,29.01c10.34,3.56,18.68,10.94,23.47,20.77
			c4.8,9.83,5.47,20.94,1.91,31.28l-29.01,84.24c-5.69,16.53-21.25,27.63-38.72,27.63c-4.53,0-9.01-0.75-13.34-2.24l-84.24-29.01
			c-21.35-7.35-32.74-30.7-25.39-52.05l29.01-84.24c5.69-16.53,21.25-27.63,38.72-27.63L367.63,97.13 M367.63,97.13
			c-17.41,0-33.68,10.92-39.66,28.31l-29.01,84.24c-7.54,21.91,4.1,45.78,26.01,53.32l84.24,29.01c4.52,1.56,9.13,2.3,13.66,2.3
			c17.41,0,33.68-10.92,39.66-28.31l29.01-84.24c7.54-21.91-4.1-45.78-26.01-53.32l-84.24-29.01
			C376.76,97.87,372.16,97.13,367.63,97.13L367.63,97.13z"/>
	</g>
	<g>
		<path class="st0" d="M349.61,83.43v1h0c2.62,0,5.26,0.26,7.86,0.76l87.46,17c22.17,4.31,36.69,25.85,32.39,48.01l-17,87.46
			c-3.73,19.21-20.62,33.15-40.15,33.15c-2.62,0-5.26-0.26-7.86-0.76l-87.46-17c-10.74-2.09-20.02-8.23-26.14-17.3
			c-6.12-9.07-8.34-19.98-6.25-30.71l17-87.46c3.73-19.2,20.62-33.14,40.15-33.15L349.61,83.43 M349.6,83.43
			c-19.68,0-37.24,13.92-41.14,33.96l-17,87.46c-4.42,22.74,10.43,44.77,33.18,49.19l87.46,17c2.7,0.53,5.4,0.78,8.05,0.78
			c19.68,0,37.24-13.92,41.14-33.96l17-87.46c4.42-22.74-10.43-44.77-33.18-49.19l-87.46-17C354.95,83.68,352.26,83.43,349.6,83.43
			L349.6,83.43z"/>
	</g>
	<g>
		<path class="st0" d="M329.9,72.37l0,1h0c0.72,0,1.45,0.02,2.18,0.06l88.97,4.66c22.55,1.18,39.93,20.49,38.75,43.04l-4.66,88.97
			c-1.14,21.76-19.09,38.81-40.86,38.81c-0.72,0-1.46-0.02-2.18-0.06l-88.97-4.66c-22.55-1.18-39.93-20.49-38.75-43.04l4.66-88.97
			c1.14-21.76,19.09-38.81,40.86-38.81L329.9,72.37 M329.9,72.37c-22.16,0-40.69,17.37-41.86,39.76l-4.66,88.97
			c-1.21,23.14,16.56,42.88,39.7,44.09l88.97,4.66c0.75,0.04,1.49,0.06,2.23,0.06c22.16,0,40.69-17.37,41.86-39.76l4.66-88.97
			c1.21-23.14-16.56-42.88-39.7-44.09l-88.97-4.66C331.38,72.39,330.64,72.37,329.9,72.37L329.9,72.37z"/>
	</g>
	<g>
		<path class="st0" d="M397.69,56.38v1c10.2,0,19.98,3.8,27.55,10.7c7.61,6.94,12.3,16.42,13.2,26.69l7.77,88.76
			c0.95,10.9-2.39,21.51-9.43,29.89c-7.03,8.38-16.9,13.52-27.8,14.47l-88.76,7.77c-1.2,0.11-2.42,0.16-3.62,0.16
			c-10.2,0-19.98-3.8-27.55-10.7c-7.61-6.94-12.3-16.42-13.2-26.69l-7.77-88.76c-0.95-10.9,2.39-21.51,9.43-29.89
			c7.03-8.38,16.9-13.52,27.8-14.47l88.76-7.77c1.2-0.1,2.42-0.16,3.62-0.16L397.69,56.38 M397.68,56.38c-1.22,0-2.46,0.05-3.7,0.16
			l-88.76,7.77c-23.08,2.02-40.16,22.37-38.14,45.45l7.77,88.76c1.91,21.84,20.23,38.3,41.74,38.3c1.22,0,2.46-0.05,3.7-0.16
			l88.76-7.77c23.08-2.02,40.16-22.37,38.14-45.45l-7.77-88.76C437.52,72.84,419.2,56.38,397.68,56.38L397.68,56.38z"/>
	</g>
	<g>
		<path class="st0" d="M373.73,38.9v1c9.1,0,18.08,3.12,25.28,8.77c7.31,5.74,12.49,13.9,14.58,22.98l20.04,86.81
			c5.08,22-8.69,44.04-30.69,49.11l-86.81,20.04c-3.04,0.7-6.16,1.06-9.25,1.06c-9.1,0-18.08-3.12-25.28-8.77
			c-7.31-5.74-12.49-13.9-14.58-22.98l-20.04-86.81c-5.08-22,8.69-44.03,30.69-49.11l86.81-20.04c3.04-0.7,6.15-1.06,9.25-1.06
			L373.73,38.9 M373.73,38.9c-3.12,0-6.3,0.35-9.47,1.08l-86.81,20.04c-22.58,5.21-36.65,27.74-31.44,50.31l20.04,86.81
			c4.48,19.4,21.74,32.52,40.84,32.52c3.12,0,6.3-0.35,9.47-1.08l86.81-20.04c22.58-5.21,36.65-27.74,31.44-50.31l-20.04-86.81
			C410.09,52.02,392.82,38.9,373.73,38.9L373.73,38.9z"/>
	</g>
	<g>
		<path class="st0" d="M347.54,24.91v1h0c8.19,0,16.13,2.43,22.95,7.04c6.98,4.71,12.26,11.36,15.29,19.25l31.93,83.18
			c8.09,21.08-2.47,44.82-23.56,52.91l-83.18,31.93c-4.72,1.81-9.66,2.73-14.67,2.73c-8.19,0-16.13-2.43-22.95-7.04
			c-6.98-4.71-12.26-11.36-15.29-19.25l-31.93-83.18c-8.09-21.08,2.47-44.82,23.56-52.91l83.18-31.93
			c4.72-1.81,9.66-2.73,14.67-2.73L347.54,24.91 M347.54,24.91c-5,0-10.08,0.9-15.03,2.8l-83.18,31.93
			c-21.63,8.3-32.43,32.57-24.13,54.2l31.93,83.18c6.41,16.69,22.31,26.93,39.17,26.93c5,0,10.08-0.9,15.03-2.8l83.18-31.93
			c21.63-8.3,32.43-32.57,24.13-54.2l-31.93-83.18C380.31,35.16,364.4,24.91,347.54,24.91L347.54,24.91z"/>
	</g>
	<g>
		<path class="st0" d="M319.68,14.71v1h0c14.9,0,28.64,8.09,35.85,21.11l43.19,77.93c5.3,9.57,6.56,20.63,3.55,31.14
			c-3.02,10.51-9.94,19.23-19.51,24.53l-77.93,43.19c-6.07,3.36-12.92,5.14-19.82,5.14c-14.9,0-28.64-8.09-35.86-21.11l-43.19-77.93
			c-10.95-19.75-3.79-44.72,15.96-55.67l77.93-43.19c6.07-3.36,12.92-5.14,19.82-5.14L319.68,14.71 M319.67,14.71
			c-6.88,0-13.86,1.7-20.3,5.27l-77.93,43.19c-20.26,11.23-27.59,36.77-16.35,57.03l43.19,77.93c7.66,13.82,21.97,21.62,36.73,21.62
			c6.88,0,13.86-1.7,20.3-5.27l77.93-43.19c20.26-11.23,27.59-36.77,16.35-57.03L356.4,36.33
			C348.74,22.51,334.43,14.71,319.67,14.71L319.67,14.71z"/>
	</g>
	<g>
		<path class="st0" d="M290.7,8.49v1h0c12.99,0,24.92,5.94,32.73,16.31l53.62,71.16c13.59,18.03,9.97,43.76-8.06,57.35l-71.16,53.62
			c-7.16,5.4-15.67,8.25-24.61,8.25c-12.99,0-24.93-5.94-32.74-16.31l-53.62-71.16c-13.59-18.03-9.97-43.76,8.06-57.35l71.16-53.62
			c7.16-5.4,15.67-8.25,24.61-8.25L290.7,8.49 M290.7,8.49c-8.79,0-17.66,2.75-25.22,8.45l-71.16,53.62
			c-18.5,13.94-22.2,40.25-8.26,58.75l53.62,71.16c8.25,10.94,20.81,16.71,33.54,16.71c8.79,0,17.66-2.75,25.22-8.45l71.16-53.62
			c18.5-13.94,22.2-40.25,8.26-58.75l-53.62-71.16C315.99,14.25,303.42,8.48,290.7,8.49L290.7,8.49z"/>
	</g>
</g>
</svg>
