<?xml version="1.0" encoding="utf-8"?>
<!-- Generator: Adobe Illustrator 25.3.1, SVG Export Plug-In . SVG Version: 6.00 Build 0)  -->
<svg version="1.1" id="Layer_1" xmlns="http://www.w3.org/2000/svg" xmlns:xlink="http://www.w3.org/1999/xlink" x="0px" y="0px"
	 viewBox="0 0 419.04 419.71" style="enable-background:new 0 0 419.04 419.71;" xml:space="preserve">
<style type="text/css">
	.st0{fill:#E75C57;}
</style>
<g>
	<g>
		<path class="st0" d="M208.52,14.86c31.25,0,60.63,12.17,82.73,34.27c22.1,22.1,34.27,51.48,34.27,82.73
			c0,31.25-12.17,60.63-34.27,82.73c-22.1,22.1-51.48,34.27-82.73,34.27s-60.63-12.17-82.73-34.27
			c-22.1-22.1-34.27-51.48-34.27-82.73c0-31.25,12.17-60.63,34.27-82.73C147.89,27.03,177.27,14.86,208.52,14.86 M208.52,9.86
			c-31.22,0-62.45,11.91-86.27,35.73l0,0c-47.64,47.64-47.64,124.89,0,172.53l0,0c23.82,23.82,55.04,35.73,86.27,35.73
			s62.45-11.91,86.27-35.73l0,0c47.64-47.64,47.64-124.89,0-172.53l0,0C270.97,21.77,239.74,9.86,208.52,9.86L208.52,9.86z"/>
	</g>
	<g>
		<path class="st0" d="M192.45,11.75v5c22.58,0,44.57,6.53,63.6,18.89c26.21,17.02,44.22,43.23,50.72,73.8s0.7,61.84-16.32,88.05
			c-21.67,33.37-58.4,53.29-98.24,53.29c-22.58,0-44.58-6.53-63.61-18.89c-26.21-17.02-44.22-43.23-50.72-73.8
			c-6.5-30.57-0.7-61.84,16.32-88.05c21.67-33.37,58.39-53.29,98.24-53.29L192.45,11.75 M192.44,11.75
			c-39.93,0-79.06,19.58-102.43,55.57l0,0c-36.7,56.51-20.64,132.07,35.87,168.76l0,0c20.53,13.33,43.56,19.7,66.33,19.7
			c39.93,0,79.06-19.58,102.43-55.57l0,0c36.7-56.51,20.64-132.07-35.87-168.76l0,0C238.25,18.12,215.22,11.75,192.44,11.75
			L192.44,11.75z"/>
	</g>
	<g>
		<path class="st0" d="M176.91,16.97v5c14.31,0,28.41,2.63,41.9,7.8c29.18,11.2,52.24,33.09,64.96,61.64
			c12.71,28.55,13.54,60.34,2.34,89.52c-8.65,22.53-23.75,41.55-43.68,55c-19.49,13.15-42.16,20.1-65.57,20.1
			c-14.32,0-28.41-2.63-41.9-7.8c-29.18-11.2-52.24-33.09-64.96-61.64c-12.71-28.55-13.54-60.34-2.34-89.52
			c8.65-22.53,23.75-41.55,43.68-55c19.49-13.15,42.16-20.1,65.57-20.11L176.91,16.97 M176.91,16.97
			c-49.04,0-95.3,29.79-113.92,78.31l0,0c-24.15,62.9,7.27,133.47,70.18,157.62l0,0c14.38,5.52,29.16,8.14,43.7,8.14
			c49.04,0,95.3-29.79,113.92-78.31l0,0c24.15-62.9-7.27-133.47-70.18-157.62l0,0C206.22,19.59,191.44,16.97,176.91,16.97
			L176.91,16.97z"/>
	</g>
	<g>
		<path class="st0" d="M162.72,30.32c6.13,0,12.34,0.49,18.45,1.46c30.87,4.89,57.98,21.51,76.35,46.79
			c18.37,25.28,25.79,56.21,20.9,87.07c-4.38,27.68-18.56,52.88-39.92,70.96c-21.14,17.9-47.95,27.75-75.49,27.75
			c-6.13,0-12.34-0.49-18.45-1.46c-30.87-4.89-57.98-21.51-76.35-46.79c-18.37-25.28-25.79-56.21-20.9-87.07
			c4.38-27.68,18.56-52.88,39.92-70.96C108.37,40.18,135.18,30.32,162.72,30.32L162.72,30.32 M162.71,25.32
			c-58.96,0-110.83,42.85-120.35,102.93v0C31.83,194.8,77.23,257.3,143.78,267.84l0,0c6.47,1.02,12.89,1.52,19.23,1.52
			c58.96,0,110.83-42.85,120.35-102.93l0,0C293.9,99.88,248.5,37.38,181.95,26.84l0,0C175.48,25.82,169.06,25.32,162.71,25.32
			L162.71,25.32z"/>
	</g>
	<g>
		<path class="st0" d="M150.99,41.4c62.2,0,113.47,48.7,116.73,110.88c1.64,31.21-8.98,61.19-29.89,84.41
			c-20.91,23.22-49.62,36.92-80.82,38.55c-2.07,0.11-4.16,0.16-6.23,0.16c-62.2,0-113.48-48.7-116.74-110.88
			c-1.64-31.21,8.98-61.19,29.89-84.41s49.62-36.92,80.82-38.55C146.83,41.46,148.93,41.4,150.99,41.4L150.99,41.4L150.99,41.4
			 M150.99,36.4c-2.15,0-4.32,0.06-6.49,0.17l0,0C77.22,40.1,25.53,97.51,29.05,164.79v0c3.41,65.11,57.28,115.62,121.73,115.62
			c2.15,0,4.32-0.06,6.49-0.17h0c67.29-3.53,118.97-60.93,115.45-128.22v0C269.31,86.91,215.44,36.4,150.99,36.4L150.99,36.4z"/>
	</g>
	<g>
		<path class="st0" d="M141.55,54.69c52.81,0,99.25,35.67,112.93,86.75c8.09,30.19,3.94,61.72-11.69,88.78
			c-15.63,27.06-40.86,46.42-71.04,54.51c-9.95,2.67-20.16,4.02-30.36,4.02c-52.81,0-99.25-35.67-112.94-86.75
			c-8.09-30.19-3.94-61.72,11.69-88.78C55.77,86.16,81,66.8,111.19,58.71C121.14,56.04,131.35,54.69,141.55,54.69L141.55,54.69
			 M141.55,49.69c-10.45,0-21.08,1.35-31.65,4.19l0,0C44.81,71.32,6.19,138.21,23.63,203.3l0,0c14.61,54.51,63.9,90.45,117.77,90.45
			c10.45,0,21.08-1.35,31.65-4.19l0,0c65.08-17.44,103.71-84.34,86.27-149.42l0,0C244.71,85.64,195.42,49.69,141.55,49.69
			L141.55,49.69z"/>
	</g>
	<g>
		<path class="st0" d="M134.94,64.68v5c21.26,0,42.14,5.79,60.4,16.75c18.76,11.26,33.95,27.57,43.94,47.16
			c14.19,27.85,16.68,59.55,7.03,89.27c-9.66,29.72-30.31,53.9-58.16,68.09c-16.64,8.48-34.48,12.78-53.02,12.78
			c-21.26,0-42.15-5.79-60.41-16.75c-18.76-11.26-33.96-27.57-43.94-47.16c-14.19-27.85-16.68-59.55-7.03-89.27
			c9.66-29.72,30.31-53.9,58.16-68.09c16.64-8.48,34.48-12.78,53.02-12.78L134.94,64.68 M134.93,64.68
			c-18.63,0-37.55,4.28-55.29,13.32l0,0C19.61,108.59-4.26,182.06,26.33,242.09l0,0c21.55,42.3,64.38,66.64,108.8,66.64
			c18.63,0,37.55-4.28,55.29-13.32l0,0c60.03-30.59,83.91-104.05,53.32-164.09l0,0C222.18,89.02,179.36,64.67,134.93,64.68
			L134.93,64.68z"/>
	</g>
	<g>
		<path class="st0" d="M131.78,85.69c35.51,0,68.67,15.81,90.99,43.37c19.67,24.29,28.7,54.78,25.43,85.86s-18.44,59.03-42.73,78.7
			c-20.77,16.82-46.89,26.08-73.56,26.08c-35.51,0-68.68-15.81-91-43.37c-19.67-24.29-28.7-54.78-25.43-85.86
			s18.44-59.03,42.73-78.7C78.98,94.96,105.1,85.69,131.78,85.69L131.78,85.69 M131.77,80.69c-26.97,0-54.11,8.9-76.7,27.19l0,0
			C2.7,150.29-5.37,227.11,37.03,279.47l0,0c24.11,29.77,59.34,45.23,94.89,45.23c26.97,0,54.11-8.9,76.7-27.19l0,0
			c52.36-42.4,60.44-119.23,18.03-171.59l0,0C202.55,96.15,167.31,80.69,131.77,80.69L131.77,80.69z"/>
	</g>
	<g>
		<path class="st0" d="M132.13,102c26.66,0,52.78,9.26,73.55,26.08c24.29,19.67,39.46,47.62,42.73,78.7s-5.77,61.57-25.43,85.86
			c-22.32,27.56-55.49,43.37-91,43.37c-26.67,0-52.79-9.26-73.56-26.08c-24.29-19.67-39.46-47.62-42.73-78.7
			c-3.27-31.08,5.77-61.57,25.43-85.86C63.45,117.81,96.62,102,132.13,102L132.13,102 M132.13,97c-35.54,0-70.78,15.46-94.89,45.23
			l0,0c-42.4,52.36-34.33,129.19,18.03,171.59l0,0c22.59,18.3,49.73,27.19,76.7,27.19c35.54,0,70.78-15.46,94.89-45.23l0,0
			c42.4-52.36,34.33-129.19-18.03-171.59l0,0C186.24,105.9,159.1,97,132.13,97L132.13,97z"/>
	</g>
	<g>
		<path class="st0" d="M135.75,117.88c18.54,0,36.37,4.3,53.01,12.78c27.85,14.19,48.5,38.37,58.16,68.09
			c9.66,29.72,7.16,61.43-7.03,89.27c-9.98,19.6-25.18,35.9-43.94,47.16c-18.26,10.96-39.15,16.75-60.4,16.75
			c-18.54,0-36.38-4.3-53.02-12.78c-27.85-14.19-48.5-38.37-58.16-68.09c-9.66-29.72-7.16-61.43,7.03-89.27
			c9.98-19.6,25.18-35.9,43.94-47.16C93.6,123.68,114.49,117.88,135.75,117.88L135.75,117.88 M135.75,112.88
			c-44.42,0-87.25,24.35-108.8,66.64l0,0c-30.59,60.03-6.72,133.5,53.32,164.09l0,0c17.74,9.04,36.65,13.32,55.29,13.32
			c44.42,0,87.25-24.35,108.8-66.64l0,0c30.59-60.03,6.72-133.5-53.32-164.09l0,0C173.29,117.17,154.38,112.88,135.75,112.88
			L135.75,112.88z"/>
	</g>
	<g>
		<path class="st0" d="M142.4,132.69c10.19,0,20.4,1.35,30.35,4.02c30.19,8.09,55.42,27.45,71.04,54.51
			c15.63,27.06,19.78,58.59,11.69,88.78c-13.69,51.08-60.13,86.75-112.94,86.75c-10.2,0-20.41-1.35-30.36-4.02
			c-30.19-8.09-55.42-27.45-71.04-54.51c-15.63-27.06-19.78-58.59-11.69-88.78C43.14,168.37,89.58,132.69,142.4,132.69L142.4,132.69
			 M142.39,127.69c-53.86,0-103.16,35.95-117.77,90.45l0,0C7.19,283.23,45.81,350.13,110.9,367.56l0,0
			c10.58,2.83,21.2,4.19,31.65,4.19c53.86,0,103.16-35.95,117.77-90.45l0,0c17.44-65.08-21.18-131.98-86.27-149.42l0,0
			C163.47,129.04,152.85,127.69,142.39,127.69L142.39,127.69z"/>
	</g>
	<g>
		<path class="st0" d="M152.13,140.79v5c2.06,0,4.15,0.05,6.22,0.16c31.21,1.64,59.91,15.33,80.82,38.55
			c20.91,23.22,31.53,53.2,29.89,84.41c-3.26,62.18-54.53,110.88-116.74,110.88c-2.06,0-4.16-0.05-6.23-0.16
			c-31.21-1.64-59.91-15.33-80.82-38.55s-31.53-53.2-29.89-84.41c3.26-62.17,54.53-110.88,116.74-110.88L152.13,140.79
			 M152.12,140.79c-64.45,0-118.32,50.51-121.73,115.62v0c-3.53,67.29,48.16,124.69,115.45,128.22h0c2.18,0.11,4.33,0.17,6.49,0.17
			c64.45,0,118.32-50.51,121.73-115.62v0c3.53-67.29-48.16-124.69-115.45-128.22l0,0C156.43,140.84,154.28,140.79,152.12,140.79
			L152.12,140.79z"/>
	</g>
	<g>
		<path class="st0" d="M164.64,156.53c27.54,0,54.34,9.86,75.48,27.75c21.36,18.08,35.54,43.28,39.92,70.96
			c4.89,30.87-2.54,61.79-20.9,87.07s-45.49,41.9-76.35,46.79c-6.11,0.97-12.32,1.46-18.45,1.46c-27.54,0-54.35-9.86-75.49-27.75
			c-21.36-18.08-35.54-43.28-39.92-70.96c-4.89-30.87,2.54-61.79,20.9-87.07c18.37-25.28,45.49-41.9,76.35-46.79
			C152.29,157.02,158.5,156.53,164.64,156.53L164.64,156.53 M164.63,151.53c-6.34,0-12.77,0.5-19.23,1.52l0,0
			C78.85,163.59,33.44,226.08,43.98,292.63l0,0c9.52,60.09,61.38,102.93,120.35,102.93c6.34,0,12.77-0.5,19.23-1.52h0
			c66.55-10.54,111.95-73.03,101.41-139.58l0,0C275.46,194.37,223.6,151.53,164.63,151.53L164.63,151.53z"/>
	</g>
	<g>
		<path class="st0" d="M178.69,164.49c23.41,0,46.08,6.95,65.57,20.1c19.93,13.45,35.03,32.47,43.68,55
			c11.2,29.18,10.37,60.97-2.34,89.52c-12.71,28.55-35.78,50.44-64.96,61.64c-13.49,5.18-27.59,7.8-41.9,7.8
			c-23.41,0-46.08-6.95-65.57-20.1c-19.93-13.45-35.03-32.47-43.68-55c-11.2-29.18-10.37-60.97,2.34-89.52
			c12.71-28.55,35.78-50.44,64.96-61.64C150.27,167.11,164.37,164.49,178.69,164.49L178.69,164.49 M178.68,159.49
			c-14.53,0-29.32,2.62-43.7,8.14l0,0c-62.9,24.15-94.32,94.71-70.18,157.62l0,0c18.63,48.53,64.87,78.31,113.92,78.31
			c14.53,0,29.32-2.62,43.7-8.14l0,0c62.9-24.15,94.32-94.71,70.18-157.62l0,0C273.98,189.27,227.73,159.48,178.68,159.49
			L178.68,159.49z"/>
	</g>
	<g>
		<path class="st0" d="M194.17,169.34c39.84,0,76.56,19.92,98.24,53.29c17.02,26.21,22.82,57.48,16.32,88.05
			c-6.5,30.57-24.51,56.78-50.72,73.8c-19.03,12.36-41.02,18.89-63.61,18.89c-39.84,0-76.57-19.92-98.24-53.29
			c-17.02-26.21-22.82-57.48-16.32-88.05c6.5-30.57,24.51-56.78,50.72-73.8C149.59,175.88,171.58,169.35,194.17,169.34
			L194.17,169.34 M194.17,164.34c-22.77,0-45.81,6.37-66.33,19.7l0,0C71.33,220.74,55.27,296.3,91.96,352.8l0,0
			c23.37,35.99,62.5,55.57,102.43,55.57c22.77,0,45.81-6.37,66.33-19.7l0,0c56.51-36.7,72.57-112.26,35.87-168.76l0,0
			C273.23,183.93,234.1,164.34,194.17,164.34L194.17,164.34z"/>
	</g>
	<g>
		<path class="st0" d="M210.52,170.86c31.25,0,60.63,12.17,82.73,34.27c22.1,22.1,34.27,51.48,34.27,82.73
			c0,31.25-12.17,60.63-34.27,82.73c-22.1,22.1-51.48,34.27-82.73,34.27s-60.63-12.17-82.73-34.27
			c-22.1-22.1-34.27-51.48-34.27-82.73c0-31.25,12.17-60.63,34.27-82.73C149.89,183.03,179.27,170.86,210.52,170.86 M210.52,165.86
			c-31.22,0-62.45,11.91-86.27,35.73l0,0c-47.64,47.64-47.64,124.89,0,172.53l0,0c23.82,23.82,55.04,35.73,86.27,35.73
			s62.45-11.91,86.27-35.73l0,0c47.64-47.64,47.64-124.89,0-172.53l0,0C272.97,177.77,241.74,165.86,210.52,165.86L210.52,165.86z"
			/>
	</g>
	<g>
		<path class="st0" d="M226.84,163.93v5c22.58,0,44.57,6.53,63.6,18.89c26.21,17.02,44.22,43.23,50.72,73.8
			c6.5,30.57,0.7,61.84-16.32,88.05c-21.67,33.37-58.4,53.29-98.24,53.29c-22.58,0-44.58-6.53-63.61-18.89
			c-26.21-17.02-44.22-43.23-50.72-73.8s-0.7-61.84,16.32-88.05c21.67-33.37,58.39-53.29,98.24-53.29L226.84,163.93 M226.83,163.93
			c-39.93,0-79.06,19.58-102.43,55.57l0,0c-36.7,56.51-20.64,132.07,35.87,168.76l0,0c20.53,13.33,43.56,19.7,66.33,19.7
			c39.93,0,79.06-19.58,102.43-55.57l0,0c36.7-56.51,20.64-132.07-35.87-168.76l0,0C272.64,170.3,249.61,163.93,226.83,163.93
			L226.83,163.93z"/>
	</g>
	<g>
		<path class="st0" d="M242.19,158.67v5c14.31,0,28.41,2.63,41.9,7.8c29.18,11.2,52.24,33.09,64.96,61.64
			c12.71,28.55,13.54,60.34,2.34,89.52c-8.65,22.53-23.75,41.55-43.68,55c-19.49,13.15-42.16,20.1-65.57,20.1
			c-14.32,0-28.41-2.63-41.9-7.8c-29.18-11.2-52.24-33.09-64.96-61.64c-12.71-28.55-13.54-60.34-2.34-89.52
			c8.65-22.53,23.75-41.55,43.68-55c19.49-13.15,42.16-20.1,65.57-20.11L242.19,158.67 M242.19,158.67
			c-49.04,0-95.3,29.79-113.92,78.31l0,0c-24.15,62.9,7.27,133.47,70.18,157.62l0,0c14.38,5.52,29.16,8.14,43.7,8.14
			c49.04,0,95.3-29.79,113.92-78.31l0,0c24.15-62.9-7.27-133.47-70.18-157.62l0,0C271.5,161.29,256.72,158.67,242.19,158.67
			L242.19,158.67z"/>
	</g>
	<g>
		<path class="st0" d="M256.03,155.35c6.13,0,12.34,0.49,18.45,1.46c30.87,4.89,57.98,21.51,76.35,46.79s25.79,56.21,20.9,87.07
			c-4.38,27.68-18.56,52.88-39.92,70.96c-21.14,17.9-47.95,27.75-75.49,27.75c-6.13,0-12.34-0.49-18.45-1.46
			c-30.87-4.89-57.98-21.51-76.35-46.79c-18.37-25.28-25.79-56.21-20.9-87.07c4.38-27.68,18.56-52.88,39.92-70.96
			C201.68,165.21,228.49,155.35,256.03,155.35L256.03,155.35 M256.03,150.35c-58.96,0-110.83,42.85-120.35,102.93l0,0
			c-10.54,66.55,34.86,129.04,101.41,139.58l0,0c6.47,1.02,12.89,1.52,19.23,1.52c58.96,0,110.83-42.85,120.35-102.93v0
			c10.54-66.55-34.86-129.04-101.41-139.58h0C268.8,150.85,262.37,150.35,256.03,150.35L256.03,150.35z"/>
	</g>
	<g>
		<path class="st0" d="M268.26,144.3c62.2,0,113.47,48.7,116.73,110.88c1.64,31.21-8.98,61.19-29.89,84.41s-49.62,36.92-80.82,38.55
			c-2.07,0.11-4.16,0.16-6.23,0.16c-62.2,0-113.48-48.7-116.74-110.88c-1.64-31.21,8.98-61.19,29.89-84.41
			c20.91-23.22,49.62-36.92,80.82-38.55C264.1,144.36,266.19,144.3,268.26,144.3L268.26,144.3L268.26,144.3 M268.26,139.3
			c-2.15,0-4.32,0.06-6.49,0.17h0C194.48,143,142.8,200.4,146.32,267.69v0c3.41,65.11,57.28,115.62,121.73,115.62
			c2.15,0,4.32-0.06,6.49-0.17h0c67.29-3.53,118.97-60.93,115.45-128.22v0C386.58,189.81,332.71,139.3,268.26,139.3L268.26,139.3z"
			/>
	</g>
	<g>
		<path class="st0" d="M277.65,130.96c52.81,0,99.25,35.67,112.93,86.75c8.09,30.19,3.94,61.72-11.69,88.78
			c-15.63,27.06-40.86,46.42-71.04,54.51c-9.95,2.67-20.16,4.02-30.36,4.02c-52.81,0-99.25-35.67-112.94-86.75
			c-8.09-30.19-3.94-61.72,11.69-88.78c15.63-27.06,40.86-46.42,71.04-54.51C257.24,132.31,267.45,130.96,277.65,130.96
			L277.65,130.96 M277.65,125.96c-10.45,0-21.08,1.35-31.65,4.19l0,0c-65.08,17.44-103.71,84.34-86.27,149.42l0,0
			c14.61,54.51,63.9,90.45,117.77,90.45c10.45,0,21.08-1.35,31.65-4.19l0,0c65.08-17.44,103.71-84.34,86.27-149.42l0,0
			C380.81,161.91,331.52,125.96,277.65,125.96L277.65,125.96z"/>
	</g>
	<g>
		<path class="st0" d="M283.92,110.98v5c21.26,0,42.14,5.79,60.4,16.75c18.76,11.26,33.95,27.57,43.94,47.16
			c14.19,27.85,16.68,59.55,7.03,89.27c-9.66,29.72-30.31,53.9-58.16,68.09c-16.64,8.48-34.48,12.78-53.02,12.78
			c-21.26,0-42.15-5.79-60.41-16.75c-18.76-11.26-33.96-27.57-43.94-47.16c-14.19-27.85-16.68-59.55-7.03-89.27
			c9.66-29.72,30.31-53.9,58.16-68.09c16.64-8.48,34.48-12.78,53.02-12.78L283.92,110.98 M283.91,110.98
			c-18.63,0-37.55,4.28-55.29,13.32l0,0c-60.03,30.59-83.91,104.05-53.32,164.09l0,0c21.55,42.3,64.38,66.64,108.8,66.64
			c18.63,0,37.55-4.28,55.29-13.32l0,0c60.03-30.59,83.91-104.05,53.32-164.09l0,0C371.16,135.32,328.34,110.98,283.91,110.98
			L283.91,110.98z"/>
	</g>
	<g>
		<path class="st0" d="M287.13,100.01c35.51,0,68.67,15.81,90.99,43.37c19.67,24.29,28.7,54.78,25.43,85.86
			c-3.27,31.08-18.44,59.03-42.73,78.7c-20.77,16.82-46.89,26.08-73.56,26.08c-35.51,0-68.68-15.81-91-43.37
			c-19.67-24.29-28.7-54.78-25.43-85.86s18.44-59.03,42.73-78.7C234.33,109.27,260.46,100.01,287.13,100.01L287.13,100.01
			 M287.12,95.01c-26.97,0-54.11,8.9-76.7,27.19l0,0c-52.36,42.4-60.44,119.23-18.03,171.59l0,0
			c24.11,29.77,59.34,45.23,94.89,45.23c26.97,0,54.11-8.9,76.7-27.19l0,0c52.36-42.4,60.44-119.23,18.03-171.59l0,0
			C357.9,110.46,322.67,95.01,287.12,95.01L287.12,95.01z"/>
	</g>
	<g>
		<path class="st0" d="M287.07,83.7c26.66,0,52.78,9.26,73.55,26.08c24.29,19.67,39.46,47.62,42.73,78.7
			c3.27,31.08-5.77,61.57-25.43,85.86c-22.32,27.56-55.49,43.37-91,43.37c-26.67,0-52.79-9.26-73.56-26.08
			c-24.29-19.67-39.46-47.62-42.73-78.7s5.77-61.57,25.43-85.86C218.38,99.51,251.55,83.71,287.07,83.7L287.07,83.7 M287.06,78.7
			c-35.54,0-70.78,15.46-94.89,45.23l0,0c-42.4,52.36-34.33,129.19,18.03,171.59l0,0c22.59,18.3,49.73,27.19,76.7,27.19
			c35.54,0,70.78-15.46,94.89-45.23l0,0c42.4-52.36,34.33-129.19-18.03-171.59l0,0C341.17,87.6,314.03,78.7,287.06,78.7L287.06,78.7
			z"/>
	</g>
	<g>
		<path class="st0" d="M283.5,67.78c18.54,0,36.37,4.3,53.01,12.78c27.85,14.19,48.5,38.37,58.16,68.09s7.16,61.43-7.03,89.27
			c-9.98,19.6-25.18,35.9-43.94,47.16c-18.26,10.96-39.15,16.75-60.4,16.75c-18.54,0-36.38-4.3-53.02-12.78
			c-27.85-14.19-48.5-38.37-58.16-68.09c-9.66-29.72-7.16-61.43,7.03-89.27c9.98-19.6,25.18-35.9,43.94-47.16
			C241.35,73.57,262.23,67.78,283.5,67.78L283.5,67.78 M283.49,62.78c-44.42,0-87.25,24.35-108.8,66.64l0,0
			c-30.59,60.03-6.72,133.5,53.32,164.09l0,0c17.74,9.04,36.65,13.32,55.29,13.32c44.42,0,87.25-24.35,108.8-66.64l0,0
			c30.59-60.03,6.72-133.5-53.32-164.09l0,0C321.04,67.06,302.13,62.77,283.49,62.78L283.49,62.78z"/>
	</g>
	<g>
		<path class="st0" d="M276.5,52.96c10.19,0,20.4,1.35,30.35,4.02c30.19,8.09,55.42,27.45,71.04,54.51
			c15.63,27.06,19.78,58.59,11.69,88.78c-13.69,51.08-60.13,86.75-112.94,86.75c-10.2,0-20.41-1.35-30.36-4.02
			c-30.19-8.09-55.42-27.45-71.04-54.51c-15.63-27.06-19.78-58.59-11.69-88.78C177.24,88.63,223.68,52.96,276.5,52.96L276.5,52.96
			 M276.49,47.96c-53.86,0-103.16,35.95-117.77,90.45l0,0C141.29,203.5,179.91,270.39,245,287.83l0,0
			c10.58,2.83,21.2,4.19,31.65,4.19c53.86,0,103.16-35.95,117.77-90.45l0,0c17.44-65.08-21.18-131.98-86.27-149.42l0,0
			C297.57,49.31,286.95,47.96,276.49,47.96L276.49,47.96z"/>
	</g>
	<g>
		<path class="st0" d="M266.71,39.92c2.06,0,4.16,0.05,6.23,0.16c31.21,1.64,59.91,15.33,80.82,38.55
			c20.91,23.22,31.53,53.2,29.89,84.41c-3.26,62.18-54.53,110.88-116.74,110.88c-2.06,0-4.16-0.05-6.23-0.16
			c-31.21-1.64-59.91-15.33-80.82-38.55c-20.91-23.22-31.53-53.2-29.89-84.41C153.24,88.62,204.51,39.92,266.71,39.92 M266.71,34.92
			c-64.45,0-118.32,50.51-121.73,115.62v0c-3.53,67.29,48.16,124.69,115.45,128.22h0c2.18,0.11,4.33,0.17,6.49,0.17
			c64.45,0,118.32-50.51,121.73-115.62v0c3.53-67.29-48.16-124.69-115.45-128.22h0C271.03,34.97,268.87,34.92,266.71,34.92
			L266.71,34.92z"/>
	</g>
	<g>
		<path class="st0" d="M254.72,29.15c27.54,0,54.34,9.86,75.48,27.75c21.36,18.08,35.54,43.28,39.92,70.96
			c4.89,30.87-2.54,61.79-20.9,87.07c-18.37,25.28-45.49,41.9-76.35,46.79c-6.11,0.97-12.32,1.46-18.45,1.46
			c-27.54,0-54.35-9.86-75.49-27.75c-21.36-18.08-35.54-43.28-39.92-70.97c-4.89-30.87,2.54-61.79,20.9-87.07
			s45.49-41.9,76.35-46.79C242.36,29.64,248.57,29.15,254.72,29.15L254.72,29.15 M254.71,24.15c-6.34,0-12.77,0.5-19.23,1.52l0,0
			C168.93,36.21,123.52,98.7,134.06,165.25l0,0c9.52,60.09,61.38,102.93,120.35,102.93c6.34,0,12.77-0.5,19.23-1.52l0,0
			c66.55-10.54,111.95-73.03,101.41-139.58l0,0C365.54,66.99,313.68,24.14,254.71,24.15L254.71,24.15z"/>
	</g>
	<g>
		<path class="st0" d="M240.31,21.16c23.41,0,46.08,6.95,65.57,20.1c19.93,13.45,35.03,32.47,43.68,55
			c11.2,29.18,10.37,60.97-2.34,89.52c-12.71,28.55-35.78,50.44-64.96,61.64c-13.49,5.18-27.59,7.8-41.9,7.8
			c-23.41,0-46.09-6.95-65.57-20.1c-19.93-13.45-35.03-32.47-43.68-55c-11.2-29.18-10.37-60.97,2.34-89.52
			c12.71-28.55,35.78-50.44,64.96-61.64C211.89,23.79,225.99,21.16,240.31,21.16L240.31,21.16 M240.31,16.16
			c-14.53,0-29.32,2.62-43.7,8.14l0,0c-62.9,24.15-94.32,94.71-70.18,157.62l0,0c18.63,48.53,64.87,78.31,113.92,78.31
			c14.53,0,29.32-2.62,43.7-8.14l0,0c62.9-24.15,94.32-94.71,70.18-157.62l0,0C335.6,45.95,289.36,16.16,240.31,16.16L240.31,16.16z
			"/>
	</g>
	<g>
		<path class="st0" d="M224.65,16.34c39.84,0,76.56,19.92,98.24,53.29c17.02,26.21,22.82,57.48,16.32,88.05
			c-6.5,30.57-24.51,56.78-50.72,73.8c-19.03,12.36-41.02,18.89-63.61,18.89c-39.84,0-76.57-19.92-98.24-53.29
			c-17.02-26.21-22.82-57.48-16.32-88.05c6.5-30.57,24.51-56.78,50.72-73.8C180.07,22.87,202.06,16.34,224.65,16.34L224.65,16.34
			 M224.65,11.34c-22.77,0-45.81,6.37-66.33,19.7l0,0c-56.51,36.7-72.57,112.26-35.87,168.76l0,0
			c23.37,35.99,62.5,55.57,102.43,55.57c22.77,0,45.81-6.37,66.33-19.7l0,0c56.51-36.7,72.57-112.26,35.87-168.76l0,0
			C303.71,30.92,264.58,11.34,224.65,11.34L224.65,11.34z"/>
	</g>
</g>
</svg>
